<svg xmlns="http://www.w3.org/2000/svg" viewBox="0 0 256 256" width="512" height="512">
  <defs>
    <linearGradient id="g" x1="0" y1="0" x2="1" y2="1">
      <stop offset="0%" stop-color="#2563eb"/>
      <stop offset="100%" stop-color="#4f46e5"/>
    </linearGradient>
  </defs>
  <rect width="256" height="256" rx="48" fill="url(#g)"/>
  <path fill="#ffffff" d="M175.68,74.15,135.68,51a15.88,15.88,0,0,0-15.36,0l-40,23.12A16,16,0,0,0,72,88v56a16,16,0,0,0,8.32,14l40,23.12a15.88,15.88,0,0,0,15.36,0l40-23.12A16,16,0,0,0,184,144V88A16,16,0,0,0,175.68,74.15ZM128,65.09,159.39,83.1,128,100.91,96.61,83.1ZM88,97,120,115.51V159.56L88,141ZM136,159.56V115.56L168,97v44Z"/>
</svg>
